<?xml version="1.0" encoding="UTF-8"?>
<svg xmlns="http://www.w3.org/2000/svg" xmlns:xlink="http://www.w3.org/1999/xlink" width="50pt" height="50pt" viewBox="0 0 50 50" version="1.1">
<g id="surface1">
<path style=" stroke:none;fill-rule:nonzero;fill:#2ECC71;fill-opacity:1;" d="M 16.152344 0.03125 C 16.023438 0.0546875 15.890625 0.078125 15.78125 0.15625 C 15.328125 0.460938 15.226563 1.097656 15.53125 1.550781 L 17.671875 4.742188 C 14.367188 6.496094 11.902344 9.40625 11.097656 12.898438 L 38.503906 12.898438 C 37.703125 9.40625 35.238281 6.496094 31.933594 4.742188 L 34.070313 1.550781 C 34.378906 1.097656 34.277344 0.460938 33.824219 0.15625 C 33.367188 -0.152344 32.734375 -0.0195313 32.429688 0.433594 L 30.070313 3.90625 C 28.4375 3.308594 26.660156 2.976563 24.800781 2.976563 C 22.941406 2.976563 21.167969 3.308594 19.53125 3.90625 L 17.175781 0.433594 C 16.945313 0.09375 16.53125 -0.0429688 16.152344 0.03125 Z M 19.34375 7.9375 C 20.167969 7.9375 20.832031 8.601563 20.832031 9.425781 C 20.832031 10.25 20.167969 10.914063 19.34375 10.914063 C 18.519531 10.914063 17.855469 10.25 17.855469 9.425781 C 17.855469 8.601563 18.519531 7.9375 19.34375 7.9375 Z M 30.257813 7.9375 C 31.082031 7.9375 31.746094 8.601563 31.746094 9.425781 C 31.746094 10.25 31.082031 10.914063 30.257813 10.914063 C 29.4375 10.914063 28.769531 10.25 28.769531 9.425781 C 28.769531 8.601563 29.4375 7.9375 30.257813 7.9375 Z M 7.9375 14.882813 C 6.292969 14.882813 4.960938 16.214844 4.960938 17.855469 L 4.960938 31.746094 C 4.960938 33.390625 6.292969 34.722656 7.9375 34.722656 C 8.285156 34.722656 8.617188 34.648438 8.929688 34.535156 L 8.929688 15.066406 C 8.617188 14.953125 8.285156 14.882813 7.9375 14.882813 Z M 10.914063 14.882813 L 10.914063 36.707031 C 10.914063 38.34375 12.25 39.683594 13.890625 39.683594 L 35.714844 39.683594 C 37.355469 39.683594 38.691406 38.34375 38.691406 36.707031 L 38.691406 14.882813 Z M 41.667969 14.882813 C 41.316406 14.882813 40.984375 14.953125 40.675781 15.066406 L 40.675781 34.535156 C 40.984375 34.644531 41.316406 34.722656 41.667969 34.722656 C 43.308594 34.722656 44.644531 33.390625 44.644531 31.746094 L 44.644531 17.855469 C 44.644531 16.214844 43.308594 14.882813 41.667969 14.882813 Z M 14.882813 41.667969 L 14.882813 45.636719 C 14.882813 47.824219 16.660156 49.601563 18.847656 49.601563 C 21.039063 49.601563 22.816406 47.824219 22.816406 45.636719 L 22.816406 41.667969 Z M 26.785156 41.667969 L 26.785156 45.636719 C 26.785156 47.824219 28.566406 49.601563 30.753906 49.601563 C 32.945313 49.601563 34.722656 47.824219 34.722656 45.636719 L 34.722656 41.667969 Z "/>
</g>
</svg>
