<?xml version="1.0" encoding="UTF-8"?>
<svg xmlns="http://www.w3.org/2000/svg" xmlns:xlink="http://www.w3.org/1999/xlink" width="50pt" height="50pt" viewBox="0 0 50 50" version="1.1">
<g id="surface1">
<path style=" stroke:none;fill-rule:nonzero;fill:#2ECC71;fill-opacity:1;" d="M 44.175781 34.472656 C 43.105469 36.851563 42.589844 37.910156 41.214844 40.007813 C 39.289063 42.9375 36.570313 46.597656 33.214844 46.621094 C 30.226563 46.644531 29.457031 44.671875 25.398438 44.703125 C 21.34375 44.722656 20.5 46.65625 17.507813 46.628906 C 14.148438 46.597656 11.578125 43.300781 9.652344 40.375 C 4.265625 32.171875 3.695313 22.554688 7.027344 17.4375 C 9.382813 13.8125 13.105469 11.679688 16.605469 11.679688 C 20.171875 11.679688 22.410156 13.636719 25.355469 13.636719 C 28.214844 13.636719 29.957031 11.675781 34.078125 11.675781 C 37.195313 11.675781 40.488281 13.375 42.84375 16.304688 C 35.140625 20.527344 36.390625 31.527344 44.175781 34.472656 Z M 30.949219 8.402344 C 32.449219 6.476563 33.585938 3.757813 33.171875 0.992188 C 30.726563 1.160156 27.867188 2.71875 26.195313 4.742188 C 24.679688 6.589844 23.425781 9.324219 23.914063 11.96875 C 26.585938 12.054688 29.347656 10.464844 30.949219 8.402344 Z "/>
</g>
</svg>
