<?xml version="1.0" encoding="UTF-8"?>
<svg xmlns="http://www.w3.org/2000/svg" xmlns:xlink="http://www.w3.org/1999/xlink" width="100pt" height="100pt" viewBox="0 0 100 100" version="1.1">
<g id="surface1">
<path style=" stroke:none;fill-rule:nonzero;fill:#2ECC71;fill-opacity:1;" d="M 3.597656 3.96875 C 3.535156 3.984375 3.472656 4.007813 3.410156 4.03125 C 1.480469 4.300781 0 5.9375 0 7.9375 C 0 10.128906 1.773438 11.90625 3.96875 11.90625 C 6.160156 11.90625 7.9375 10.128906 7.9375 7.9375 L 17.175781 7.9375 C 19.648438 7.9375 20.933594 8.449219 21.886719 9.300781 C 22.824219 10.144531 23.585938 11.570313 24.242188 13.765625 L 40.117188 77.816406 C 40.714844 80.085938 41.308594 82.425781 42.96875 84.324219 C 43.660156 85.117188 44.527344 85.757813 45.574219 86.246094 C 44.410156 87.628906 43.652344 89.339844 43.652344 91.269531 C 43.652344 95.632813 47.222656 99.207031 51.585938 99.207031 C 55.949219 99.207031 59.523438 95.632813 59.523438 91.269531 C 59.523438 89.8125 59.097656 88.480469 58.40625 87.300781 L 70.558594 87.300781 C 69.871094 88.480469 69.445313 89.8125 69.445313 91.269531 C 69.445313 95.632813 73.015625 99.207031 77.382813 99.207031 C 81.746094 99.207031 85.316406 95.632813 85.316406 91.269531 C 85.316406 89.230469 84.488281 87.410156 83.210938 86 C 83.433594 85.394531 83.339844 84.714844 82.976563 84.1875 C 82.605469 83.652344 82 83.332031 81.347656 83.332031 L 51.027344 83.332031 C 47.96875 83.332031 46.71875 82.683594 45.882813 81.722656 C 45.054688 80.769531 44.550781 79.101563 43.960938 76.886719 L 43.960938 76.824219 L 42.597656 71.429688 L 78.992188 71.429688 C 79.824219 71.429688 80.574219 70.910156 80.851563 70.125 L 95.113281 32.429688 C 95.347656 31.824219 95.261719 31.140625 94.890625 30.605469 C 94.515625 30.070313 93.90625 29.753906 93.253906 29.761719 L 32.304688 29.761719 L 28.085938 12.835938 C 28.085938 12.796875 28.085938 12.75 28.085938 12.710938 C 27.328125 10.152344 26.34375 7.9375 24.554688 6.324219 C 22.761719 4.710938 20.246094 3.96875 17.175781 3.96875 L 3.96875 3.96875 C 3.90625 3.96875 3.84375 3.96875 3.78125 3.96875 C 3.71875 3.96875 3.660156 3.96875 3.597656 3.96875 Z M 33.296875 33.730469 L 90.402344 33.730469 L 77.628906 67.460938 L 41.667969 67.460938 Z M 51.585938 87.300781 C 53.804688 87.300781 55.554688 89.054688 55.554688 91.269531 C 55.554688 93.488281 53.804688 95.238281 51.585938 95.238281 C 49.371094 95.238281 47.617188 93.488281 47.617188 91.269531 C 47.617188 89.054688 49.371094 87.300781 51.585938 87.300781 Z M 77.382813 87.300781 C 79.597656 87.300781 81.347656 89.054688 81.347656 91.269531 C 81.347656 93.488281 79.597656 95.238281 77.382813 95.238281 C 75.164063 95.238281 73.414063 93.488281 73.414063 91.269531 C 73.414063 89.054688 75.164063 87.300781 77.382813 87.300781 Z "/>
</g>
</svg>
