<?xml version="1.0" encoding="UTF-8"?>
<svg xmlns="http://www.w3.org/2000/svg" xmlns:xlink="http://www.w3.org/1999/xlink" width="100pt" height="100pt" viewBox="0 0 100 100" version="1.1">
<g id="surface1">
<path style=" stroke:none;fill-rule:nonzero;fill:#2ECC71;fill-opacity:1;" d="M 11.90625 1.984375 L 11.90625 9.921875 C 11.90625 13.183594 14.59375 15.871094 17.855469 15.871094 L 21.824219 15.871094 L 21.824219 29.203125 C 21.824219 35.171875 24.792969 40.773438 29.761719 44.085938 L 38.070313 49.601563 L 29.761719 55.121094 C 24.792969 58.429688 21.824219 64.035156 21.824219 70.003906 L 21.824219 83.332031 L 17.855469 83.332031 C 14.59375 83.332031 11.90625 86.023438 11.90625 89.285156 L 11.90625 97.222656 L 87.300781 97.222656 L 87.300781 89.285156 C 87.300781 86.023438 84.613281 83.332031 81.347656 83.332031 L 77.382813 83.332031 L 77.382813 70.003906 C 77.382813 64.035156 74.414063 58.429688 69.445313 55.121094 L 61.136719 49.601563 L 69.445313 44.085938 C 74.414063 40.773438 77.382813 35.171875 77.382813 29.203125 L 77.382813 15.871094 L 81.347656 15.871094 C 84.613281 15.871094 87.300781 13.183594 87.300781 9.921875 L 87.300781 1.984375 Z M 15.871094 5.953125 L 83.332031 5.953125 L 83.332031 9.921875 C 83.332031 11.042969 82.472656 11.90625 81.347656 11.90625 L 17.855469 11.90625 C 16.734375 11.90625 15.871094 11.042969 15.871094 9.921875 Z M 25.792969 15.871094 L 73.414063 15.871094 L 73.414063 29.203125 C 73.414063 33.847656 71.078125 38.164063 67.210938 40.738281 L 56.421875 47.929688 L 53.945313 49.601563 L 56.421875 51.277344 L 67.210938 58.46875 C 71.078125 61.050781 73.414063 65.359375 73.414063 70.003906 L 73.414063 83.332031 L 25.792969 83.332031 L 25.792969 70.003906 C 25.792969 65.359375 28.125 61.050781 31.992188 58.46875 L 42.78125 51.277344 L 45.261719 49.601563 L 42.78125 47.929688 L 31.992188 40.738281 C 28.125 38.164063 25.792969 33.847656 25.792969 29.203125 Z M 31.746094 25.792969 C 31.746094 41.84375 49.601563 45.636719 49.601563 45.636719 C 49.601563 45.636719 67.460938 41.636719 67.460938 25.792969 Z M 17.855469 87.300781 L 81.347656 87.300781 C 82.472656 87.300781 83.332031 88.160156 83.332031 89.285156 L 83.332031 93.253906 L 15.871094 93.253906 L 15.871094 89.285156 C 15.871094 88.160156 16.734375 87.300781 17.855469 87.300781 Z "/>
</g>
</svg>
