<?xml version="1.0" encoding="UTF-8"?>
<svg xmlns="http://www.w3.org/2000/svg" xmlns:xlink="http://www.w3.org/1999/xlink" width="100pt" height="100pt" viewBox="0 0 100 100" version="1.1">
<g id="surface1">
<path style=" stroke:none;fill-rule:nonzero;fill:#2ECC71;fill-opacity:1;" d="M 49.601563 3.96875 C 24.4375 3.96875 3.96875 24.4375 3.96875 49.601563 C 3.96875 74.769531 24.4375 95.238281 49.601563 95.238281 C 74.769531 95.238281 95.238281 74.769531 95.238281 49.601563 C 95.238281 24.4375 74.769531 3.96875 49.601563 3.96875 Z M 55.804688 25.667969 C 62.972656 25.738281 69.445313 27.792969 72.421875 29.515625 C 66.203125 37.882813 68.785156 52.363281 61.878906 62.066406 C 55.417969 71.140625 43.402344 71.675781 43.402344 71.675781 L 43.09375 71.675781 C 43 75.628906 43.238281 79.425781 43.835938 82.527344 C 44.046875 83.605469 43.363281 84.613281 42.285156 84.820313 C 42.164063 84.84375 42.039063 84.882813 41.914063 84.882813 C 40.984375 84.882813 40.171875 84.226563 39.992188 83.269531 C 39.984375 83.125 39.96875 82.976563 39.929688 82.835938 C 39.914063 82.730469 39.898438 82.628906 39.867188 82.527344 C 39.851563 82.433594 39.820313 82.316406 39.804688 82.21875 C 39.707031 81.597656 39.574219 80.953125 39.496094 80.296875 C 39.410156 79.613281 39.371094 78.898438 39.308594 78.1875 C 39.28125 77.800781 39.273438 77.402344 39.25 77.007813 C 39.203125 76.265625 39.148438 75.542969 39.125 74.777344 C 39.101563 73.761719 39.101563 72.722656 39.125 71.675781 C 39.296875 64.933594 40.519531 57.546875 43.277344 52.269531 C 48.734375 41.828125 56.363281 38.132813 56.363281 38.132813 C 57.261719 37.730469 57.734375 36.738281 57.46875 35.785156 C 57.207031 34.839844 56.285156 34.226563 55.308594 34.351563 C 55.042969 34.382813 54.796875 34.464844 54.5625 34.597656 C 54.5625 34.597656 45.734375 39 39.746094 50.472656 C 36.753906 56.207031 35.417969 63.375 35.15625 70.125 C 30.746094 65.609375 19.074219 50.867188 34.96875 33.792969 C 40.78125 27.546875 48.632813 25.601563 55.804688 25.667969 Z "/>
</g>
</svg>
