<?xml version="1.0" encoding="UTF-8"?>
<svg xmlns="http://www.w3.org/2000/svg" xmlns:xlink="http://www.w3.org/1999/xlink" width="100pt" height="100pt" viewBox="0 0 100 100" version="1.1">
<g id="surface1">
<path style=" stroke:none;fill-rule:nonzero;fill:#2ECC71;fill-opacity:1;" d="M 99.207031 49.601563 C 99.207031 35.320313 86.703125 23.808594 71.429688 23.808594 C 62.105469 23.808594 56.152344 28.171875 51.984375 33.132813 C 52.773438 34.328125 52.976563 34.519531 53.570313 35.714844 C 54.363281 37.101563 57.742188 43.652344 58.332031 45.039063 L 58.53125 44.84375 C 62.105469 38.488281 65.476563 35.714844 71.429688 35.714844 C 80.15625 35.714844 87.300781 41.867188 87.300781 49.601563 C 87.300781 57.339844 80.15625 63.492188 71.429688 63.492188 C 62.429688 63.492188 58.742188 55.65625 54.476563 46.582031 C 49.457031 35.90625 43.757813 23.808594 27.777344 23.808594 C 12.394531 24.105469 0 35.382813 0 49.601563 C 0 63.886719 12.5 75.398438 27.777344 75.398438 C 37.101563 75.398438 43.054688 71.226563 47.222656 66.074219 C 46.425781 64.878906 46.230469 64.6875 45.636719 63.492188 C 44.84375 61.902344 41.464844 55.355469 40.875 53.964844 L 40.675781 54.167969 C 37.101563 60.71875 33.730469 63.492188 27.777344 63.492188 C 19.050781 63.492188 11.90625 57.339844 11.90625 49.601563 C 11.90625 41.882813 19.019531 35.746094 27.722656 35.714844 C 36.785156 35.746094 40.574219 43.621094 44.96875 52.742188 C 50.058594 63.296875 55.828125 75.257813 71.429688 75.382813 C 71.429688 75.390625 71.429688 75.390625 71.429688 75.398438 C 71.46875 75.398438 71.515625 75.390625 71.550781 75.390625 C 71.597656 75.390625 71.636719 75.398438 71.675781 75.398438 L 71.675781 75.382813 C 86.84375 75.257813 99.207031 63.808594 99.207031 49.601563 Z "/>
</g>
</svg>
